<?plantuml 1.2026.2?><svg xmlns="http://www.w3.org/2000/svg" xmlns:xlink="http://www.w3.org/1999/xlink" contentStyleType="text/css" data-diagram-type="CLASS" height="920px" preserveAspectRatio="none" style="width:1353px;height:920px;background:#FFFFFF;" version="1.1" viewBox="0 0 1353 920" width="1353px" zoomAndPan="magnify"><defs/><g><!--class TipoMineral--><g class="entity" data-qualified-name="TipoMineral" data-source-line="6" id="ent0002"><rect fill="#F1F1F1" height="80.5938" rx="5" ry="5" style="stroke:#181818;stroke-width:0.5;" width="113.5732" x="183.5" y="833"/><ellipse cx="198.5" cy="849" fill="#EB937F" rx="11" ry="11" style="stroke:#181818;stroke-width:1;"/><path d="M202.6094,855 L194.8906,855 L194.8906,842.6094 L202.6094,842.6094 L202.6094,844.7656 L197.3438,844.7656 L197.3438,847.4375 L202.1094,847.4375 L202.1094,849.5938 L197.3438,849.5938 L197.3438,852.8438 L202.6094,852.8438 L202.6094,855 Z " fill="#000000"/><text fill="#000000" font-family="sans-serif" font-size="14" lengthAdjust="spacing" textLength="81.5732" x="212.5" y="853.8467">TipoMineral</text><line style="stroke:#181818;stroke-width:0.5;" x1="184.5" x2="296.0732" y1="865" y2="865"/><text fill="#000000" font-family="sans-serif" font-size="14" lengthAdjust="spacing" textLength="68.8311" x="189.5" y="881.9951">PRIMARIO</text><text fill="#000000" font-family="sans-serif" font-size="14" lengthAdjust="spacing" textLength="93.4609" x="189.5" y="898.292">SECUNDARIO</text><line style="stroke:#181818;stroke-width:0.5;" x1="184.5" x2="296.0732" y1="905.5938" y2="905.5938"/></g><!--class Mineral--><g class="entity" data-qualified-name="Mineral" data-source-line="11" id="ent0003"><rect fill="#F1F1F1" height="129.4844" rx="5" ry="5" style="stroke:#181818;stroke-width:0.5;" width="178.2773" x="151.5" y="643"/><ellipse cx="210.5488" cy="659" fill="#ADD1B2" rx="11" ry="11" style="stroke:#181818;stroke-width:1;"/><path d="M213.5176,664.6406 Q212.9395,664.9375 212.2988,665.0781 Q211.6582,665.2344 210.9551,665.2344 Q208.4551,665.2344 207.127,663.5938 Q205.8145,661.9375 205.8145,658.8125 Q205.8145,655.6875 207.127,654.0313 Q208.4551,652.375 210.9551,652.375 Q211.6582,652.375 212.2988,652.5313 Q212.9551,652.6875 213.5176,652.9844 L213.5176,655.7031 Q212.8926,655.125 212.2988,654.8594 Q211.7051,654.5781 211.0801,654.5781 Q209.7363,654.5781 209.0488,655.6563 Q208.3613,656.7188 208.3613,658.8125 Q208.3613,660.9063 209.0488,661.9844 Q209.7363,663.0469 211.0801,663.0469 Q211.7051,663.0469 212.2988,662.7813 Q212.8926,662.5 213.5176,661.9219 L213.5176,664.6406 Z " fill="#000000"/><text fill="#000000" font-family="sans-serif" font-size="14" lengthAdjust="spacing" textLength="51.6797" x="231.0488" y="663.8467">Mineral</text><line style="stroke:#181818;stroke-width:0.5;" x1="152.5" x2="328.7773" y1="675" y2="675"/><text fill="#000000" font-family="sans-serif" font-size="14" lengthAdjust="spacing" textLength="110.332" x="157.5" y="691.9951">-nombre: String</text><text fill="#000000" font-family="sans-serif" font-size="14" lengthAdjust="spacing" textLength="122.623" x="157.5" y="708.292">-tipo: TipoMineral</text><line style="stroke:#181818;stroke-width:0.5;" x1="152.5" x2="328.7773" y1="715.5938" y2="715.5938"/><text fill="#000000" font-family="sans-serif" font-size="14" lengthAdjust="spacing" textLength="152.5234" x="157.5" y="732.5889">+getNombre(): String</text><text fill="#000000" font-family="sans-serif" font-size="14" lengthAdjust="spacing" textLength="166.2773" x="157.5" y="748.8857">+getTipo(): TipoMineral</text><text fill="#000000" font-family="sans-serif" font-size="14" lengthAdjust="spacing" textLength="162.2168" x="157.5" y="765.1826">+esPrimario(): boolean</text></g><!--class Lote--><g class="entity" data-qualified-name="Lote" data-source-line="19" id="ent0004"><rect fill="#F1F1F1" height="194.6719" rx="5" ry="5" style="stroke:#181818;stroke-width:0.5;" width="477.4316" x="7" y="165"/><ellipse cx="226.2319" cy="181" fill="#ADD1B2" rx="11" ry="11" style="stroke:#181818;stroke-width:1;"/><path d="M229.2007,186.6406 Q228.6226,186.9375 227.9819,187.0781 Q227.3413,187.2344 226.6382,187.2344 Q224.1382,187.2344 222.8101,185.5938 Q221.4976,183.9375 221.4976,180.8125 Q221.4976,177.6875 222.8101,176.0313 Q224.1382,174.375 226.6382,174.375 Q227.3413,174.375 227.9819,174.5313 Q228.6382,174.6875 229.2007,174.9844 L229.2007,177.7031 Q228.5757,177.125 227.9819,176.8594 Q227.3882,176.5781 226.7632,176.5781 Q225.4194,176.5781 224.7319,177.6563 Q224.0444,178.7188 224.0444,180.8125 Q224.0444,182.9063 224.7319,183.9844 Q225.4194,185.0469 226.7632,185.0469 Q227.3882,185.0469 227.9819,184.7813 Q228.5757,184.5 229.2007,183.9219 L229.2007,186.6406 Z " fill="#000000"/><text fill="#000000" font-family="sans-serif" font-size="14" lengthAdjust="spacing" textLength="30.4678" x="246.7319" y="185.8467">Lote</text><line style="stroke:#181818;stroke-width:0.5;" x1="8" x2="483.4316" y1="197" y2="197"/><text fill="#000000" font-family="sans-serif" font-size="14" lengthAdjust="spacing" textLength="110.332" x="13" y="213.9951">-nombre: String</text><text fill="#000000" font-family="sans-serif" font-size="14" lengthAdjust="spacing" textLength="182.9775" x="13" y="230.292">-minerales: List&lt;Mineral&gt;</text><text fill="#000000" font-family="sans-serif" font-size="14" lengthAdjust="spacing" textLength="229.1475" x="13" y="246.5889">-historialSiembras: List&lt;Cereal&gt;</text><line style="stroke:#181818;stroke-width:0.5;" x1="8" x2="483.4316" y1="253.8906" y2="253.8906"/><text fill="#000000" font-family="sans-serif" font-size="14" lengthAdjust="spacing" textLength="282.2695" x="13" y="270.8857">+agregarMineral(mineral: Mineral): void</text><text fill="#000000" font-family="sans-serif" font-size="14" lengthAdjust="spacing" textLength="217.5127" x="13" y="287.1826">+sembrar(cereal: Cereal): void</text><text fill="#000000" font-family="sans-serif" font-size="14" lengthAdjust="spacing" textLength="314.1729" x="13" y="303.4795">+contieneMineral(mineral: Mineral): boolean</text><text fill="#000000" font-family="sans-serif" font-size="14" lengthAdjust="spacing" textLength="465.4316" x="13" y="319.7764">+contieneTodosLosMinerales(requeridos: List&lt;Mineral&gt;): boolean</text><text fill="#000000" font-family="sans-serif" font-size="14" lengthAdjust="spacing" textLength="215.585" x="13" y="336.0732">+tuvoPasturaPrevia(): boolean</text><text fill="#000000" font-family="sans-serif" font-size="14" lengthAdjust="spacing" textLength="161.3965" x="13" y="352.3701">+esEspecial(): boolean</text></g><!--class Cereal--><g class="entity" data-qualified-name="Cereal" data-source-line="31" id="ent0005"><rect fill="#F1F1F1" height="129.4844" rx="5" ry="5" style="stroke:#181818;stroke-width:0.5;" width="366.0811" x="371.5" y="437"/><ellipse cx="527.6772" cy="453" fill="#A9DCDF" rx="11" ry="11" style="stroke:#181818;stroke-width:1;"/><path d="M527.7866,448.3438 L526.6304,453.4219 L528.9585,453.4219 L527.7866,448.3438 Z M526.3022,446.1094 L529.2866,446.1094 L532.646,458.5 L530.1929,458.5 L529.4272,455.4375 L526.146,455.4375 L525.396,458.5 L522.9585,458.5 L526.3022,446.1094 Z " fill="#000000"/><text fill="#000000" font-family="sans-serif" font-size="14" font-style="italic" lengthAdjust="spacing" textLength="45.2266" x="548.1772" y="457.8467">Cereal</text><line style="stroke:#181818;stroke-width:0.5;" x1="372.5" x2="736.5811" y1="469" y2="469"/><text fill="#000000" font-family="sans-serif" font-size="14" lengthAdjust="spacing" textLength="110.332" x="377.5" y="485.9951">-nombre: String</text><text fill="#000000" font-family="sans-serif" font-size="14" lengthAdjust="spacing" textLength="262.083" x="377.5" y="502.292">-mineralesRequeridos: List&lt;Mineral&gt;</text><line style="stroke:#181818;stroke-width:0.5;" x1="372.5" x2="736.5811" y1="509.5938" y2="509.5938"/><text fill="#000000" font-family="sans-serif" font-size="14" lengthAdjust="spacing" textLength="152.5234" x="377.5" y="526.5889">+getNombre(): String</text><text fill="#000000" font-family="sans-serif" font-size="14" lengthAdjust="spacing" textLength="354.0811" x="377.5" y="542.8857">+agregarMineralRequerido(mineral: Mineral): void</text><text fill="#000000" font-family="sans-serif" font-size="14" lengthAdjust="spacing" textLength="291.6006" x="377.5" y="559.1826">+puedeSembrarseEn(lote: Lote): boolean</text></g><!--class CosechaGruesa--><g class="entity" data-qualified-name="CosechaGruesa" data-source-line="39" id="ent0006"><rect fill="#F1F1F1" height="64.2969" rx="5" ry="5" style="stroke:#181818;stroke-width:0.5;" width="303.6006" x="364.5" y="675.5"/><ellipse cx="457.3696" cy="691.5" fill="#ADD1B2" rx="11" ry="11" style="stroke:#181818;stroke-width:1;"/><path d="M460.3384,697.1406 Q459.7603,697.4375 459.1196,697.5781 Q458.479,697.7344 457.7759,697.7344 Q455.2759,697.7344 453.9478,696.0938 Q452.6353,694.4375 452.6353,691.3125 Q452.6353,688.1875 453.9478,686.5313 Q455.2759,684.875 457.7759,684.875 Q458.479,684.875 459.1196,685.0313 Q459.7759,685.1875 460.3384,685.4844 L460.3384,688.2031 Q459.7134,687.625 459.1196,687.3594 Q458.5259,687.0781 457.9009,687.0781 Q456.5571,687.0781 455.8696,688.1563 Q455.1821,689.2188 455.1821,691.3125 Q455.1821,693.4063 455.8696,694.4844 Q456.5571,695.5469 457.9009,695.5469 Q458.5259,695.5469 459.1196,695.2813 Q459.7134,695 460.3384,694.4219 L460.3384,697.1406 Z " fill="#000000"/><text fill="#000000" font-family="sans-serif" font-size="14" lengthAdjust="spacing" textLength="109.3613" x="477.8696" y="696.3467">CosechaGruesa</text><line style="stroke:#181818;stroke-width:0.5;" x1="365.5" x2="667.1006" y1="707.5" y2="707.5"/><line style="stroke:#181818;stroke-width:0.5;" x1="365.5" x2="667.1006" y1="715.5" y2="715.5"/><text fill="#000000" font-family="sans-serif" font-size="14" lengthAdjust="spacing" textLength="291.6006" x="370.5" y="732.4951">+puedeSembrarseEn(lote: Lote): boolean</text></g><!--class CosechaFina--><g class="entity" data-qualified-name="CosechaFina" data-source-line="43" id="ent0007"><rect fill="#F1F1F1" height="64.2969" rx="5" ry="5" style="stroke:#181818;stroke-width:0.5;" width="303.6006" x="703.5" y="675.5"/><ellipse cx="806.6543" cy="691.5" fill="#ADD1B2" rx="11" ry="11" style="stroke:#181818;stroke-width:1;"/><path d="M809.623,697.1406 Q809.0449,697.4375 808.4043,697.5781 Q807.7637,697.7344 807.0605,697.7344 Q804.5605,697.7344 803.2324,696.0938 Q801.9199,694.4375 801.9199,691.3125 Q801.9199,688.1875 803.2324,686.5313 Q804.5605,684.875 807.0605,684.875 Q807.7637,684.875 808.4043,685.0313 Q809.0605,685.1875 809.623,685.4844 L809.623,688.2031 Q808.998,687.625 808.4043,687.3594 Q807.8105,687.0781 807.1855,687.0781 Q805.8418,687.0781 805.1543,688.1563 Q804.4668,689.2188 804.4668,691.3125 Q804.4668,693.4063 805.1543,694.4844 Q805.8418,695.5469 807.1855,695.5469 Q807.8105,695.5469 808.4043,695.2813 Q808.998,695 809.623,694.4219 L809.623,697.1406 Z " fill="#000000"/><text fill="#000000" font-family="sans-serif" font-size="14" lengthAdjust="spacing" textLength="88.792" x="827.1543" y="696.3467">CosechaFina</text><line style="stroke:#181818;stroke-width:0.5;" x1="704.5" x2="1006.1006" y1="707.5" y2="707.5"/><line style="stroke:#181818;stroke-width:0.5;" x1="704.5" x2="1006.1006" y1="715.5" y2="715.5"/><text fill="#000000" font-family="sans-serif" font-size="14" lengthAdjust="spacing" textLength="291.6006" x="709.5" y="732.4951">+puedeSembrarseEn(lote: Lote): boolean</text></g><!--class Pastura--><g class="entity" data-qualified-name="Pastura" data-source-line="47" id="ent0008"><rect fill="#F1F1F1" height="64.2969" rx="5" ry="5" style="stroke:#181818;stroke-width:0.5;" width="303.6006" x="1042.5" y="675.5"/><ellipse cx="1163.5439" cy="691.5" fill="#ADD1B2" rx="11" ry="11" style="stroke:#181818;stroke-width:1;"/><path d="M1166.5127,697.1406 Q1165.9346,697.4375 1165.2939,697.5781 Q1164.6533,697.7344 1163.9502,697.7344 Q1161.4502,697.7344 1160.1221,696.0938 Q1158.8096,694.4375 1158.8096,691.3125 Q1158.8096,688.1875 1160.1221,686.5313 Q1161.4502,684.875 1163.9502,684.875 Q1164.6533,684.875 1165.2939,685.0313 Q1165.9502,685.1875 1166.5127,685.4844 L1166.5127,688.2031 Q1165.8877,687.625 1165.2939,687.3594 Q1164.7002,687.0781 1164.0752,687.0781 Q1162.7314,687.0781 1162.0439,688.1563 Q1161.3564,689.2188 1161.3564,691.3125 Q1161.3564,693.4063 1162.0439,694.4844 Q1162.7314,695.5469 1164.0752,695.5469 Q1164.7002,695.5469 1165.2939,695.2813 Q1165.8877,695 1166.5127,694.4219 L1166.5127,697.1406 Z " fill="#000000"/><text fill="#000000" font-family="sans-serif" font-size="14" lengthAdjust="spacing" textLength="53.0127" x="1184.0439" y="696.3467">Pastura</text><line style="stroke:#181818;stroke-width:0.5;" x1="1043.5" x2="1345.1006" y1="707.5" y2="707.5"/><line style="stroke:#181818;stroke-width:0.5;" x1="1043.5" x2="1345.1006" y1="715.5" y2="715.5"/><text fill="#000000" font-family="sans-serif" font-size="14" lengthAdjust="spacing" textLength="291.6006" x="1048.5" y="732.4951">+puedeSembrarseEn(lote: Lote): boolean</text></g><!--class Cooperativa--><g class="entity" data-qualified-name="Cooperativa" data-source-line="51" id="ent0009"><rect fill="#F1F1F1" height="80.5938" rx="5" ry="5" style="stroke:#181818;stroke-width:0.5;" width="388.9336" x="206" y="7"/><ellipse cx="353.7246" cy="23" fill="#ADD1B2" rx="11" ry="11" style="stroke:#181818;stroke-width:1;"/><path d="M356.6934,28.6406 Q356.1152,28.9375 355.4746,29.0781 Q354.834,29.2344 354.1309,29.2344 Q351.6309,29.2344 350.3027,27.5938 Q348.9902,25.9375 348.9902,22.8125 Q348.9902,19.6875 350.3027,18.0313 Q351.6309,16.375 354.1309,16.375 Q354.834,16.375 355.4746,16.5313 Q356.1309,16.6875 356.6934,16.9844 L356.6934,19.7031 Q356.0684,19.125 355.4746,18.8594 Q354.8809,18.5781 354.2559,18.5781 Q352.9121,18.5781 352.2246,19.6563 Q351.5371,20.7188 351.5371,22.8125 Q351.5371,24.9063 352.2246,25.9844 Q352.9121,27.0469 354.2559,27.0469 Q354.8809,27.0469 355.4746,26.7813 Q356.0684,26.5 356.6934,25.9219 L356.6934,28.6406 Z " fill="#000000"/><text fill="#000000" font-family="sans-serif" font-size="14" lengthAdjust="spacing" textLength="84.9844" x="374.2246" y="27.8467">Cooperativa</text><line style="stroke:#181818;stroke-width:0.5;" x1="207" x2="593.9336" y1="39" y2="39"/><text fill="#000000" font-family="sans-serif" font-size="14" lengthAdjust="spacing" textLength="247.2969" x="212" y="55.9951">-cerealesDisponibles: List&lt;Cereal&gt;</text><line style="stroke:#181818;stroke-width:0.5;" x1="207" x2="593.9336" y1="63.2969" y2="63.2969"/><text fill="#000000" font-family="sans-serif" font-size="14" lengthAdjust="spacing" textLength="376.9336" x="212" y="80.292">+getCerealesAptosParaLote(lote: Lote): List&lt;Cereal&gt;</text></g><!--reverse link Cereal to CosechaGruesa--><g class="link" data-entity-1="ent0005" data-entity-2="ent0006" data-link-type="extension" data-source-line="57" id="lnk10"><path codeLine="57" d="M539.3351,583.9059 C532.5651,620.2659 527.67,646.52 522.29,675.42" fill="none" id="Cereal-backto-CosechaGruesa" style="stroke:#181818;stroke-width:1;"/><polygon fill="none" points="542.63,566.21,533.4365,582.8076,545.2338,585.0042,542.63,566.21" style="stroke:#181818;stroke-width:1;"/></g><!--reverse link Cereal to CosechaFina--><g class="link" data-entity-1="ent0005" data-entity-2="ent0007" data-link-type="extension" data-source-line="58" id="lnk11"><path codeLine="58" d="M663.4004,576.3084 C717.0504,612.6684 767,646.52 809.64,675.42" fill="none" id="Cereal-backto-CosechaFina" style="stroke:#181818;stroke-width:1;"/><polygon fill="none" points="648.5,566.21,660.0343,581.2752,666.7665,571.3416,648.5,566.21" style="stroke:#181818;stroke-width:1;"/></g><!--reverse link Cereal to Pastura--><g class="link" data-entity-1="ent0005" data-entity-2="ent0008" data-link-type="extension" data-source-line="59" id="lnk12"><path codeLine="59" d="M755.0072,558.9554 C842.5572,584.3554 931.28,611.29 1025.5,643 C1055.06,652.95 1087.17,664.76 1115.38,675.47" fill="none" id="Cereal-backto-Pastura" style="stroke:#181818;stroke-width:1;"/><polygon fill="none" points="737.72,553.94,753.3354,564.7177,756.679,553.193,737.72,553.94" style="stroke:#181818;stroke-width:1;"/></g><!--link Mineral to TipoMineral--><g class="link" data-entity-1="ent0003" data-entity-2="ent0002" data-link-type="dependency" data-source-line="62" id="lnk13"><path codeLine="62" d="M240.5,772.38 C240.5,792.7 240.5,808.59 240.5,826.71" fill="none" id="Mineral-to-TipoMineral" style="stroke:#181818;stroke-width:1;"/><polygon fill="#181818" points="240.5,832.71,244.5,823.71,240.5,827.71,236.5,823.71,240.5,832.71" style="stroke:#181818;stroke-width:1;"/></g><!--reverse link Lote to Mineral--><g class="link" data-entity-1="ent0004" data-entity-2="ent0003" data-link-type="aggregation" data-source-line="63" id="lnk14"><path codeLine="63" d="M244.2743,372.1692 C243.3043,457.9692 242.05,568.86 241.22,642.85" fill="none" id="Lote-backto-Mineral" style="stroke:#181818;stroke-width:1;"/><polygon fill="none" points="244.41,360.17,240.3424,366.1244,244.2743,372.1692,248.3419,366.2148,244.41,360.17" style="stroke:#181818;stroke-width:1;"/><polygon fill="#000000" points="248.4436,506.5661,251.4844,497.5547,245.6069,497.4884,248.4436,506.5661" style="stroke:#000000;stroke-width:1;"/><text fill="#000000" font-family="sans-serif" font-size="13" lengthAdjust="spacing" textLength="81.3071" x="257.5" y="506.0669">composicion</text><text fill="#000000" font-family="sans-serif" font-size="13" lengthAdjust="spacing" textLength="23.0356" x="220.5108" y="379.6479">0..*</text><text fill="#000000" font-family="sans-serif" font-size="13" lengthAdjust="spacing" textLength="23.0356" x="217.0277" y="632.0063">0..*</text></g><!--reverse link Cereal to Mineral--><g class="link" data-entity-1="ent0005" data-entity-2="ent0003" data-link-type="aggregation" data-source-line="64" id="lnk15"><path codeLine="64" d="M446.3768,572.7469 C405.7968,599.1069 369.14,622.92 329.56,648.64" fill="none" id="Cereal-backto-Mineral" style="stroke:#181818;stroke-width:1;"/><polygon fill="none" points="456.44,566.21,449.2294,566.124,446.3768,572.7469,453.5873,572.8329,456.44,566.21" style="stroke:#181818;stroke-width:1;"/><polygon fill="#000000" points="407.3072,607.2904,416.4932,604.8271,413.291,599.8982,407.3072,607.2904" style="stroke:#000000;stroke-width:1;"/><text fill="#000000" font-family="sans-serif" font-size="13" lengthAdjust="spacing" textLength="54.7866" x="420.5" y="609.0669">requiere</text><text fill="#000000" font-family="sans-serif" font-size="13" lengthAdjust="spacing" textLength="23.0356" x="420.7695" y="586.6059">0..*</text><text fill="#000000" font-family="sans-serif" font-size="13" lengthAdjust="spacing" textLength="23.0356" x="337.8776" y="640.1969">1..*</text></g><!--link Lote to Cereal--><g class="link" data-entity-1="ent0004" data-entity-2="ent0005" data-link-type="dependency" data-source-line="65" id="lnk16"><path codeLine="65" d="M371.63,360.24 C405.34,386.09 436.149,409.7286 466.869,433.2886" fill="none" id="Lote-to-Cereal" style="stroke:#181818;stroke-width:1;"/><polygon fill="#181818" points="471.63,436.94,466.9227,428.2889,467.6625,433.8972,462.0542,434.637,471.63,436.94" style="stroke:#181818;stroke-width:1;"/><polygon fill="#000000" points="436.4674,401.6094,431.0789,393.7726,427.5017,398.4365,436.4674,401.6094" style="stroke:#000000;stroke-width:1;"/><text fill="#000000" font-family="sans-serif" font-size="13" lengthAdjust="spacing" textLength="52.2095" x="441.5" y="403.0669">historial</text><text fill="#000000" font-family="sans-serif" font-size="13" lengthAdjust="spacing" textLength="23.0356" x="356.676" y="379.7228">0..*</text><text fill="#000000" font-family="sans-serif" font-size="13" lengthAdjust="spacing" textLength="23.0356" x="438.3058" y="426.1061">0..*</text></g><!--link Cooperativa to Cereal--><g class="link" data-entity-1="ent0009" data-entity-2="ent0005" data-link-type="dependency" data-source-line="66" id="lnk17"><path codeLine="66" d="M444.77,88.07 C465.29,108.91 488.06,136.12 501.5,165 C542.54,253.22 552.5256,361.0925 554.5556,430.9025" fill="none" id="Cooperativa-to-Cereal" style="stroke:#181818;stroke-width:1;"/><polygon fill="#181818" points="554.73,436.9,558.4667,427.7875,554.5847,431.9021,550.4701,428.0201,554.73,436.9" style="stroke:#181818;stroke-width:1;"/><text fill="#000000" font-family="sans-serif" font-size="13" lengthAdjust="spacing" textLength="55.9482" x="549.5" y="267.0669">catalogo</text><text fill="#000000" font-family="sans-serif" font-size="13" lengthAdjust="spacing" textLength="8.271" x="442.9622" y="107.5389">1</text><text fill="#000000" font-family="sans-serif" font-size="13" lengthAdjust="spacing" textLength="23.0356" x="530.4949" y="426.0617">0..*</text></g><!--link Cooperativa to Lote--><g class="link" data-entity-1="ent0009" data-entity-2="ent0004" data-link-type="dependency" data-source-line="67" id="lnk18"><path codeLine="67" d="M371.71,88.06 C355.95,109.72 339.1996,132.728 319.5296,159.768" fill="none" id="Cooperativa-to-Lote" style="stroke:#181818;stroke-width:1;"/><polygon fill="#181818" points="316,164.62,324.529,159.695,318.9413,160.5766,318.0597,154.9889,316,164.62" style="stroke:#181818;stroke-width:1;"/><text fill="#000000" font-family="sans-serif" font-size="13" lengthAdjust="spacing" textLength="43.4751" x="346.5" y="131.0669">evalua</text><text fill="#000000" font-family="sans-serif" font-size="13" lengthAdjust="spacing" textLength="8.271" x="358.7149" y="107.5274">1</text><text fill="#000000" font-family="sans-serif" font-size="13" lengthAdjust="spacing" textLength="23.0356" x="297.3183" y="153.965">0..*</text></g><?plantuml-src dLJRZjem47tFLrYyDEsArV8QhP0GIrias2BO_O0XJCEeYIVrE5JgvT_h60SIe6n5dkAPSyvSRVb6kWG3XKfp41bPQsXTMPoch5Vq4zL390T8mPhJhU42rLV81LikmvNUf6mq6ZLeSsGB6_v1EWkK27LLg1SgUKuE3Bdw5IdtBPRJ-MWv_U8FgyduzVd97_z4aSzCTU5zfRbO6qpKocMiis2qJZTfgtlxdShGFdjy_Bx3y9uQNjlFQIWBGmKOylurSuwWZodDsEBrV8gz74gYPYJsCSWFWtlhR6m8yXMXOqC36wF11dMd83EOWGdSE6WcJKTSPZkcJG2B5p9nwYKIjPVgOjniBQ76AufDhLt22szOPYppfgpOuFSA3JdpIOLd6hRQyGB4LWOM1dS4yHa4PI8bfguV9-s6jLW3gTqlQQZfFpk__5U6Rwv6j-y7dJS6K5QumTL-2e8J7UTkInA_AvTsQCo2wHO-cGe5GactYdmaVRD46Ctj6N3fUc5f1uUvx5SGvOcaP4thupNexhURm3X0HwLbMRY7euxJ3TaXkhZlr6Ttq6vReh0FZx_x_Mu_Btdg9dNieV9QSOavfCGQ9MgUctv_s7aO_9tlFTpVV-WfTkpmsy0JTrUAaeLg6JLi0hK9WnD2VON8mHowBLu73hz193c-5xLog-EzmMLy2XPoplWQsCTC5EuWh-0l?></g></svg>