<?plantuml 1.2026.2?><svg xmlns="http://www.w3.org/2000/svg" xmlns:xlink="http://www.w3.org/1999/xlink" contentStyleType="text/css" data-diagram-type="CLASS" height="1056px" preserveAspectRatio="none" style="width:1198px;height:1056px;background:#FFFFFF;" version="1.1" viewBox="0 0 1198 1056" width="1198px" zoomAndPan="magnify"><defs/><g><!--class SedeOlimpica--><g class="entity" data-qualified-name="SedeOlimpica" data-source-line="6" id="ent0002"><rect fill="#F1F1F1" height="162.0781" rx="5" ry="5" style="stroke:#181818;stroke-width:0.5;" width="401.8945" x="299.5" y="7"/><ellipse cx="447.9526" cy="23" fill="#ADD1B2" rx="11" ry="11" style="stroke:#181818;stroke-width:1;"/><path d="M450.9214,28.6406 Q450.3433,28.9375 449.7026,29.0781 Q449.062,29.2344 448.3589,29.2344 Q445.8589,29.2344 444.5308,27.5938 Q443.2183,25.9375 443.2183,22.8125 Q443.2183,19.6875 444.5308,18.0313 Q445.8589,16.375 448.3589,16.375 Q449.062,16.375 449.7026,16.5313 Q450.3589,16.6875 450.9214,16.9844 L450.9214,19.7031 Q450.2964,19.125 449.7026,18.8594 Q449.1089,18.5781 448.4839,18.5781 Q447.1401,18.5781 446.4526,19.6563 Q445.7651,20.7188 445.7651,22.8125 Q445.7651,24.9063 446.4526,25.9844 Q447.1401,27.0469 448.4839,27.0469 Q449.1089,27.0469 449.7026,26.7813 Q450.2964,26.5 450.9214,25.9219 L450.9214,28.6406 Z " fill="#000000"/><text fill="#000000" font-family="sans-serif" font-size="14" lengthAdjust="spacing" textLength="96.4893" x="468.4526" y="27.8467">SedeOlimpica</text><line style="stroke:#181818;stroke-width:0.5;" x1="300.5" x2="700.3945" y1="39" y2="39"/><text fill="#000000" font-family="sans-serif" font-size="14" lengthAdjust="spacing" textLength="110.332" x="305.5" y="55.9951">-nombre: String</text><text fill="#000000" font-family="sans-serif" font-size="14" lengthAdjust="spacing" textLength="233.707" x="305.5" y="72.292">-presupuestoAproximado: double</text><text fill="#000000" font-family="sans-serif" font-size="14" lengthAdjust="spacing" textLength="267.8457" x="305.5" y="88.5889">-complejos: List&lt;ComplejoDeportivo&gt;</text><line style="stroke:#181818;stroke-width:0.5;" x1="300.5" x2="700.3945" y1="95.8906" y2="95.8906"/><text fill="#000000" font-family="sans-serif" font-size="14" lengthAdjust="spacing" textLength="152.5234" x="305.5" y="112.8857">+getNombre(): String</text><text fill="#000000" font-family="sans-serif" font-size="14" lengthAdjust="spacing" textLength="273.8545" x="305.5" y="129.1826">+getPresupuestoAproximado(): double</text><text fill="#000000" font-family="sans-serif" font-size="14" lengthAdjust="spacing" textLength="202.0977" x="305.5" y="145.4795">+getNumeroComplejos(): int</text><text fill="#000000" font-family="sans-serif" font-size="14" lengthAdjust="spacing" textLength="389.8945" x="305.5" y="161.7764">+agregarComplejo(complejo: ComplejoDeportivo): void</text></g><!--class ComplejoDeportivo--><g class="entity" data-qualified-name="ComplejoDeportivo" data-source-line="16" id="ent0003"><rect fill="#F1F1F1" height="243.5625" rx="5" ry="5" style="stroke:#181818;stroke-width:0.5;" width="308.6318" x="346" y="246"/><ellipse cx="428.7388" cy="262" fill="#A9DCDF" rx="11" ry="11" style="stroke:#181818;stroke-width:1;"/><path d="M428.8481,257.3438 L427.6919,262.4219 L430.02,262.4219 L428.8481,257.3438 Z M427.3638,255.1094 L430.3481,255.1094 L433.7075,267.5 L431.2544,267.5 L430.4888,264.4375 L427.2075,264.4375 L426.4575,267.5 L424.02,267.5 L427.3638,255.1094 Z " fill="#000000"/><text fill="#000000" font-family="sans-serif" font-size="14" font-style="italic" lengthAdjust="spacing" textLength="134.6543" x="449.2388" y="266.8467">ComplejoDeportivo</text><line style="stroke:#181818;stroke-width:0.5;" x1="347" x2="653.6318" y1="278" y2="278"/><text fill="#000000" font-family="sans-serif" font-size="14" lengthAdjust="spacing" textLength="110.332" x="352" y="294.9951">-nombre: String</text><text fill="#000000" font-family="sans-serif" font-size="14" lengthAdjust="spacing" textLength="137.4639" x="352" y="311.292">-localizacion: String</text><text fill="#000000" font-family="sans-serif" font-size="14" lengthAdjust="spacing" textLength="174.002" x="352" y="327.5889">-jefeOrganizacion: String</text><text fill="#000000" font-family="sans-serif" font-size="14" lengthAdjust="spacing" textLength="176.9688" x="352" y="343.8857">-areaOcupadaM2: double</text><text fill="#000000" font-family="sans-serif" font-size="14" lengthAdjust="spacing" textLength="207.8809" x="352" y="360.1826">-areas: List&lt;AreaDesignada&gt;</text><text fill="#000000" font-family="sans-serif" font-size="14" lengthAdjust="spacing" textLength="166.5576" x="352" y="376.4795">-eventos: List&lt;Evento&gt;</text><line style="stroke:#181818;stroke-width:0.5;" x1="347" x2="653.6318" y1="383.7813" y2="383.7813"/><text fill="#000000" font-family="sans-serif" font-size="14" lengthAdjust="spacing" textLength="152.5234" x="352" y="400.7764">+getNombre(): String</text><text fill="#000000" font-family="sans-serif" font-size="14" lengthAdjust="spacing" textLength="181.9658" x="352" y="417.0732">+getLocalizacion(): String</text><text fill="#000000" font-family="sans-serif" font-size="14" lengthAdjust="spacing" textLength="214.833" x="352" y="433.3701">+getJefeOrganizacion(): String</text><text fill="#000000" font-family="sans-serif" font-size="14" lengthAdjust="spacing" textLength="218.5586" x="352" y="449.667">+getAreaOcupadaM2(): double</text><text fill="#000000" font-family="sans-serif" font-size="14" lengthAdjust="spacing" textLength="296.6318" x="352" y="465.9639">+agregarArea(area: AreaDesignada): void</text><text fill="#000000" font-family="sans-serif" font-size="14" lengthAdjust="spacing" textLength="290.8008" x="352" y="482.2607">+programarEvento(evento: Evento): void</text></g><!--class ComplejoUnicoDeporte--><g class="entity" data-qualified-name="ComplejoUnicoDeporte" data-source-line="31" id="ent0004"><rect fill="#F1F1F1" height="80.5938" rx="5" ry="5" style="stroke:#181818;stroke-width:0.5;" width="225.1992" x="7" y="656.5"/><ellipse cx="36.1297" cy="672.5" fill="#ADD1B2" rx="11" ry="11" style="stroke:#181818;stroke-width:1;"/><path d="M39.0985,678.1406 Q38.5204,678.4375 37.8797,678.5781 Q37.2391,678.7344 36.536,678.7344 Q34.036,678.7344 32.7079,677.0938 Q31.3954,675.4375 31.3954,672.3125 Q31.3954,669.1875 32.7079,667.5313 Q34.036,665.875 36.536,665.875 Q37.2391,665.875 37.8797,666.0313 Q38.536,666.1875 39.0985,666.4844 L39.0985,669.2031 Q38.4735,668.625 37.8797,668.3594 Q37.286,668.0781 36.661,668.0781 Q35.3172,668.0781 34.6297,669.1563 Q33.9422,670.2188 33.9422,672.3125 Q33.9422,674.4063 34.6297,675.4844 Q35.3172,676.5469 36.661,676.5469 Q37.286,676.5469 37.8797,676.2813 Q38.4735,676 39.0985,675.4219 L39.0985,678.1406 Z " fill="#000000"/><text fill="#000000" font-family="sans-serif" font-size="14" lengthAdjust="spacing" textLength="161.7998" x="53.2697" y="677.3467">ComplejoUnicoDeporte</text><line style="stroke:#181818;stroke-width:0.5;" x1="8" x2="231.1992" y1="688.5" y2="688.5"/><text fill="#000000" font-family="sans-serif" font-size="14" lengthAdjust="spacing" textLength="170.7139" x="13" y="705.4951">-deportePrincipal: String</text><line style="stroke:#181818;stroke-width:0.5;" x1="8" x2="231.1992" y1="712.7969" y2="712.7969"/><text fill="#000000" font-family="sans-serif" font-size="14" lengthAdjust="spacing" textLength="213.1992" x="13" y="729.792">+getDeportePrincipal(): String</text></g><!--class Polideportivo--><g class="entity" data-qualified-name="Polideportivo" data-source-line="36" id="ent0005"><rect fill="#F1F1F1" height="80.5938" rx="5" ry="5" style="stroke:#181818;stroke-width:0.5;" width="207.6924" x="267.5" y="656.5"/><ellipse cx="321.2339" cy="672.5" fill="#ADD1B2" rx="11" ry="11" style="stroke:#181818;stroke-width:1;"/><path d="M324.2026,678.1406 Q323.6245,678.4375 322.9839,678.5781 Q322.3433,678.7344 321.6401,678.7344 Q319.1401,678.7344 317.812,677.0938 Q316.4995,675.4375 316.4995,672.3125 Q316.4995,669.1875 317.812,667.5313 Q319.1401,665.875 321.6401,665.875 Q322.3433,665.875 322.9839,666.0313 Q323.6401,666.1875 324.2026,666.4844 L324.2026,669.2031 Q323.5776,668.625 322.9839,668.3594 Q322.3901,668.0781 321.7651,668.0781 Q320.4214,668.0781 319.7339,669.1563 Q319.0464,670.2188 319.0464,672.3125 Q319.0464,674.4063 319.7339,675.4844 Q320.4214,676.5469 321.7651,676.5469 Q322.3901,676.5469 322.9839,676.2813 Q323.5776,676 324.2026,675.4219 L324.2026,678.1406 Z " fill="#000000"/><text fill="#000000" font-family="sans-serif" font-size="14" lengthAdjust="spacing" textLength="91.7246" x="341.7339" y="677.3467">Polideportivo</text><line style="stroke:#181818;stroke-width:0.5;" x1="268.5" x2="474.1924" y1="688.5" y2="688.5"/><text fill="#000000" font-family="sans-serif" font-size="14" lengthAdjust="spacing" textLength="153.0225" x="273.5" y="705.4951">-cantidadCanchas: int</text><line style="stroke:#181818;stroke-width:0.5;" x1="268.5" x2="474.1924" y1="712.7969" y2="712.7969"/><text fill="#000000" font-family="sans-serif" font-size="14" lengthAdjust="spacing" textLength="195.6924" x="273.5" y="729.792">+getCantidadCanchas(): int</text></g><!--class AreaDesignada--><g class="entity" data-qualified-name="AreaDesignada" data-source-line="41" id="ent0006"><rect fill="#F1F1F1" height="145.7813" rx="5" ry="5" style="stroke:#181818;stroke-width:0.5;" width="238.5977" x="511" y="624"/><ellipse cx="572.5952" cy="640" fill="#ADD1B2" rx="11" ry="11" style="stroke:#181818;stroke-width:1;"/><path d="M575.564,645.6406 Q574.9858,645.9375 574.3452,646.0781 Q573.7046,646.2344 573.0015,646.2344 Q570.5015,646.2344 569.1733,644.5938 Q567.8608,642.9375 567.8608,639.8125 Q567.8608,636.6875 569.1733,635.0313 Q570.5015,633.375 573.0015,633.375 Q573.7046,633.375 574.3452,633.5313 Q575.0015,633.6875 575.564,633.9844 L575.564,636.7031 Q574.939,636.125 574.3452,635.8594 Q573.7515,635.5781 573.1265,635.5781 Q571.7827,635.5781 571.0952,636.6563 Q570.4077,637.7188 570.4077,639.8125 Q570.4077,641.9063 571.0952,642.9844 Q571.7827,644.0469 573.1265,644.0469 Q573.7515,644.0469 574.3452,643.7813 Q574.939,643.5 575.564,642.9219 L575.564,645.6406 Z " fill="#000000"/><text fill="#000000" font-family="sans-serif" font-size="14" lengthAdjust="spacing" textLength="106.9072" x="593.0952" y="644.8467">AreaDesignada</text><line style="stroke:#181818;stroke-width:0.5;" x1="512" x2="748.5977" y1="656" y2="656"/><text fill="#000000" font-family="sans-serif" font-size="14" lengthAdjust="spacing" textLength="110.332" x="517" y="672.9951">-nombre: String</text><text fill="#000000" font-family="sans-serif" font-size="14" lengthAdjust="spacing" textLength="175.3623" x="517" y="689.292">-deporteAsignado: String</text><text fill="#000000" font-family="sans-serif" font-size="14" lengthAdjust="spacing" textLength="185.7666" x="517" y="705.5889">-indicadorSituacion: String</text><line style="stroke:#181818;stroke-width:0.5;" x1="512" x2="748.5977" y1="712.8906" y2="712.8906"/><text fill="#000000" font-family="sans-serif" font-size="14" lengthAdjust="spacing" textLength="152.5234" x="517" y="729.8857">+getNombre(): String</text><text fill="#000000" font-family="sans-serif" font-size="14" lengthAdjust="spacing" textLength="217.8477" x="517" y="746.1826">+getDeporteAsignado(): String</text><text fill="#000000" font-family="sans-serif" font-size="14" lengthAdjust="spacing" textLength="226.5977" x="517" y="762.4795">+getIndicadorSituacion(): String</text></g><!--class Evento--><g class="entity" data-qualified-name="Evento" data-source-line="50" id="ent0007"><rect fill="#F1F1F1" height="259.8594" rx="5" ry="5" style="stroke:#181818;stroke-width:0.5;" width="342.251" x="785.5" y="567"/><ellipse cx="928.0396" cy="583" fill="#ADD1B2" rx="11" ry="11" style="stroke:#181818;stroke-width:1;"/><path d="M931.0083,588.6406 Q930.4302,588.9375 929.7896,589.0781 Q929.1489,589.2344 928.4458,589.2344 Q925.9458,589.2344 924.6177,587.5938 Q923.3052,585.9375 923.3052,582.8125 Q923.3052,579.6875 924.6177,578.0313 Q925.9458,576.375 928.4458,576.375 Q929.1489,576.375 929.7896,576.5313 Q930.4458,576.6875 931.0083,576.9844 L931.0083,579.7031 Q930.3833,579.125 929.7896,578.8594 Q929.1958,578.5781 928.5708,578.5781 Q927.2271,578.5781 926.5396,579.6563 Q925.8521,580.7188 925.8521,582.8125 Q925.8521,584.9063 926.5396,585.9844 Q927.2271,587.0469 928.5708,587.0469 Q929.1958,587.0469 929.7896,586.7813 Q930.3833,586.5 931.0083,585.9219 L931.0083,588.6406 Z " fill="#000000"/><text fill="#000000" font-family="sans-serif" font-size="14" lengthAdjust="spacing" textLength="48.6719" x="948.5396" y="587.8467">Evento</text><line style="stroke:#181818;stroke-width:0.5;" x1="786.5" x2="1126.751" y1="599" y2="599"/><text fill="#000000" font-family="sans-serif" font-size="14" lengthAdjust="spacing" textLength="110.332" x="791.5" y="615.9951">-nombre: String</text><text fill="#000000" font-family="sans-serif" font-size="14" lengthAdjust="spacing" textLength="122.9033" x="791.5" y="632.292">-fecha: LocalDate</text><text fill="#000000" font-family="sans-serif" font-size="14" lengthAdjust="spacing" textLength="148.6543" x="791.5" y="648.5889">-duracionMinutos: int</text><text fill="#000000" font-family="sans-serif" font-size="14" lengthAdjust="spacing" textLength="155.333" x="791.5" y="664.8857">-numParticipantes: int</text><text fill="#000000" font-family="sans-serif" font-size="14" lengthAdjust="spacing" textLength="220.2061" x="791.5" y="681.1826">-numComisariosRequeridos: int</text><text fill="#000000" font-family="sans-serif" font-size="14" lengthAdjust="spacing" textLength="193.3682" x="791.5" y="697.4795">-materiales: List&lt;Material&gt;</text><text fill="#000000" font-family="sans-serif" font-size="14" lengthAdjust="spacing" textLength="207.2725" x="791.5" y="713.7764">-comisarios: List&lt;Comisario&gt;</text><line style="stroke:#181818;stroke-width:0.5;" x1="786.5" x2="1126.751" y1="721.0781" y2="721.0781"/><text fill="#000000" font-family="sans-serif" font-size="14" lengthAdjust="spacing" textLength="152.5234" x="791.5" y="738.0732">+getNombre(): String</text><text fill="#000000" font-family="sans-serif" font-size="14" lengthAdjust="spacing" textLength="166.6191" x="791.5" y="754.3701">+getFecha(): LocalDate</text><text fill="#000000" font-family="sans-serif" font-size="14" lengthAdjust="spacing" textLength="191.1396" x="791.5" y="770.667">+getDuracionMinutos(): int</text><text fill="#000000" font-family="sans-serif" font-size="14" lengthAdjust="spacing" textLength="197.5244" x="791.5" y="786.9639">+getNumParticipantes(): int</text><text fill="#000000" font-family="sans-serif" font-size="14" lengthAdjust="spacing" textLength="297.8555" x="791.5" y="803.2607">+agregarMaterial(material: Material): void</text><text fill="#000000" font-family="sans-serif" font-size="14" lengthAdjust="spacing" textLength="330.251" x="791.5" y="819.5576">+asignarComisario(comisario: Comisario): void</text></g><!--class Comisario--><g class="entity" data-qualified-name="Comisario" data-source-line="66" id="ent0008"><rect fill="#F1F1F1" height="145.7813" rx="5" ry="5" style="stroke:#181818;stroke-width:0.5;" width="301.4814" x="665" y="904"/><ellipse cx="776.5146" cy="920" fill="#ADD1B2" rx="11" ry="11" style="stroke:#181818;stroke-width:1;"/><path d="M779.4834,925.6406 Q778.9053,925.9375 778.2646,926.0781 Q777.624,926.2344 776.9209,926.2344 Q774.4209,926.2344 773.0928,924.5938 Q771.7803,922.9375 771.7803,919.8125 Q771.7803,916.6875 773.0928,915.0313 Q774.4209,913.375 776.9209,913.375 Q777.624,913.375 778.2646,913.5313 Q778.9209,913.6875 779.4834,913.9844 L779.4834,916.7031 Q778.8584,916.125 778.2646,915.8594 Q777.6709,915.5781 777.0459,915.5781 Q775.7021,915.5781 775.0146,916.6563 Q774.3271,917.7188 774.3271,919.8125 Q774.3271,921.9063 775.0146,922.9844 Q775.7021,924.0469 777.0459,924.0469 Q777.6709,924.0469 778.2646,923.7813 Q778.8584,923.5 779.4834,922.9219 L779.4834,925.6406 Z " fill="#000000"/><text fill="#000000" font-family="sans-serif" font-size="14" lengthAdjust="spacing" textLength="69.9521" x="797.0146" y="924.8467">Comisario</text><line style="stroke:#181818;stroke-width:0.5;" x1="666" x2="965.4814" y1="936" y2="936"/><text fill="#000000" font-family="sans-serif" font-size="14" lengthAdjust="spacing" textLength="77.6494" x="671" y="952.9951">-dni: String</text><text fill="#000000" font-family="sans-serif" font-size="14" lengthAdjust="spacing" textLength="110.332" x="671" y="969.292">-nombre: String</text><text fill="#000000" font-family="sans-serif" font-size="14" lengthAdjust="spacing" textLength="248.6572" x="671" y="985.5889">-eventosInvolucrado: List&lt;Evento&gt;</text><line style="stroke:#181818;stroke-width:0.5;" x1="666" x2="965.4814" y1="992.8906" y2="992.8906"/><text fill="#000000" font-family="sans-serif" font-size="14" lengthAdjust="spacing" textLength="120.1348" x="671" y="1009.8857">+getDni(): String</text><text fill="#000000" font-family="sans-serif" font-size="14" lengthAdjust="spacing" textLength="152.5234" x="671" y="1026.1826">+getNombre(): String</text><text fill="#000000" font-family="sans-serif" font-size="14" lengthAdjust="spacing" textLength="289.4814" x="671" y="1042.4795">+getEventosInvolucrado(): List&lt;Evento&gt;</text></g><!--class Material--><g class="entity" data-qualified-name="Material" data-source-line="75" id="ent0009"><rect fill="#F1F1F1" height="145.7813" rx="5" ry="5" style="stroke:#181818;stroke-width:0.5;" width="190.5342" x="1001" y="904"/><ellipse cx="1063.5796" cy="920" fill="#ADD1B2" rx="11" ry="11" style="stroke:#181818;stroke-width:1;"/><path d="M1066.5483,925.6406 Q1065.9702,925.9375 1065.3296,926.0781 Q1064.689,926.2344 1063.9858,926.2344 Q1061.4858,926.2344 1060.1577,924.5938 Q1058.8452,922.9375 1058.8452,919.8125 Q1058.8452,916.6875 1060.1577,915.0313 Q1061.4858,913.375 1063.9858,913.375 Q1064.689,913.375 1065.3296,913.5313 Q1065.9858,913.6875 1066.5483,913.9844 L1066.5483,916.7031 Q1065.9233,916.125 1065.3296,915.8594 Q1064.7358,915.5781 1064.1108,915.5781 Q1062.7671,915.5781 1062.0796,916.6563 Q1061.3921,917.7188 1061.3921,919.8125 Q1061.3921,921.9063 1062.0796,922.9844 Q1062.7671,924.0469 1064.1108,924.0469 Q1064.7358,924.0469 1065.3296,923.7813 Q1065.9233,923.5 1066.5483,922.9219 L1066.5483,925.6406 Z " fill="#000000"/><text fill="#000000" font-family="sans-serif" font-size="14" lengthAdjust="spacing" textLength="56.875" x="1084.0796" y="924.8467">Material</text><line style="stroke:#181818;stroke-width:0.5;" x1="1002" x2="1190.5342" y1="936" y2="936"/><text fill="#000000" font-family="sans-serif" font-size="14" lengthAdjust="spacing" textLength="102.4912" x="1007" y="952.9951">-codigo: String</text><text fill="#000000" font-family="sans-serif" font-size="14" lengthAdjust="spacing" textLength="136.0488" x="1007" y="969.292">-descripcion: String</text><text fill="#000000" font-family="sans-serif" font-size="14" lengthAdjust="spacing" textLength="93.3516" x="1007" y="985.5889">-cantidad: int</text><line style="stroke:#181818;stroke-width:0.5;" x1="1002" x2="1190.5342" y1="992.8906" y2="992.8906"/><text fill="#000000" font-family="sans-serif" font-size="14" lengthAdjust="spacing" textLength="145.1611" x="1007" y="1009.8857">+getCodigo(): String</text><text fill="#000000" font-family="sans-serif" font-size="14" lengthAdjust="spacing" textLength="178.5342" x="1007" y="1026.1826">+getDescripcion(): String</text><text fill="#000000" font-family="sans-serif" font-size="14" lengthAdjust="spacing" textLength="136.0215" x="1007" y="1042.4795">+getCantidad(): int</text></g><!--reverse link ComplejoDeportivo to ComplejoUnicoDeporte--><g class="link" data-entity-1="ent0003" data-entity-2="ent0004" data-link-type="extension" data-source-line="85" id="lnk10"><path codeLine="85" d="M331.8521,497.6692 C299.4421,523.5392 279.94,540.05 249.5,567 C217.13,595.67 182.46,630.28 157.07,656.44" fill="none" id="ComplejoDeportivo-backto-ComplejoUnicoDeporte" style="stroke:#181818;stroke-width:1;"/><polygon fill="none" points="345.92,486.44,328.109,492.9798,335.5951,502.3585,345.92,486.44" style="stroke:#181818;stroke-width:1;"/></g><!--reverse link ComplejoDeportivo to Polideportivo--><g class="link" data-entity-1="ent0003" data-entity-2="ent0005" data-link-type="extension" data-source-line="86" id="lnk11"><path codeLine="86" d="M446.0435,507.0438 C422.9535,565.5638 403.42,615.1 387.19,656.22" fill="none" id="ComplejoDeportivo-backto-Polideportivo" style="stroke:#181818;stroke-width:1;"/><polygon fill="none" points="452.65,490.3,440.4622,504.8416,451.6247,509.2459,452.65,490.3" style="stroke:#181818;stroke-width:1;"/></g><!--reverse link SedeOlimpica to ComplejoDeportivo--><g class="link" data-entity-1="ent0002" data-entity-2="ent0003" data-link-type="composition" data-source-line="89" id="lnk12"><path codeLine="89" d="M500.5,181.04 C500.5,205.02 500.5,219.87 500.5,245.88" fill="none" id="SedeOlimpica-backto-ComplejoDeportivo" style="stroke:#181818;stroke-width:1;"/><polygon fill="#181818" points="500.5,169.04,496.5,175.04,500.5,181.04,504.5,175.04,500.5,169.04" style="stroke:#181818;stroke-width:1;"/><polygon fill="#000000" points="505.5,212.5664,508.4389,203.5213,502.5611,203.5213,505.5,212.5664" style="stroke:#000000;stroke-width:1;"/><text fill="#000000" font-family="sans-serif" font-size="13" lengthAdjust="spacing" textLength="56.2847" x="514.5" y="212.0669">contiene</text><text fill="#000000" font-family="sans-serif" font-size="13" lengthAdjust="spacing" textLength="8.271" x="492.1486" y="189.2717">1</text><text fill="#000000" font-family="sans-serif" font-size="13" lengthAdjust="spacing" textLength="23.0356" x="476.8115" y="235.0656">1..*</text></g><!--reverse link ComplejoDeportivo to AreaDesignada--><g class="link" data-entity-1="ent0003" data-entity-2="ent0006" data-link-type="composition" data-source-line="90" id="lnk13"><path codeLine="90" d="M553.154,501.4508 C571.004,546.3408 586.23,584.64 601.8,623.81" fill="none" id="ComplejoDeportivo-backto-AreaDesignada" style="stroke:#181818;stroke-width:1;"/><polygon fill="#181818" points="548.72,490.3,547.2201,497.3534,553.154,501.4508,554.6539,494.3974,548.72,490.3" style="stroke:#181818;stroke-width:1;"/><polygon fill="#000000" points="572.3472,533.2127,571.7366,523.7217,566.2746,525.8933,572.3472,533.2127" style="stroke:#000000;stroke-width:1;"/><text fill="#000000" font-family="sans-serif" font-size="13" lengthAdjust="spacing" textLength="38.9746" x="579.5" y="533.0669">posee</text><text fill="#000000" font-family="sans-serif" font-size="13" lengthAdjust="spacing" textLength="8.271" x="543.1558" y="509.4809">1</text><text fill="#000000" font-family="sans-serif" font-size="13" lengthAdjust="spacing" textLength="23.0356" x="574.8644" y="612.9513">1..*</text></g><!--reverse link ComplejoDeportivo to Evento--><g class="link" data-entity-1="ent0003" data-entity-2="ent0007" data-link-type="composition" data-source-line="91" id="lnk14"><path codeLine="91" d="M664.9522,486.9325 C706.7922,516.9325 742.57,542.59 785.26,573.2" fill="none" id="ComplejoDeportivo-backto-Evento" style="stroke:#181818;stroke-width:1;"/><polygon fill="#181818" points="655.2,479.94,657.7453,486.687,664.9522,486.9325,662.4069,480.1855,655.2,479.94" style="stroke:#181818;stroke-width:1;"/><polygon fill="#000000" points="737.5633,531.48,731.9253,523.8209,728.5001,528.5976,737.5633,531.48" style="stroke:#000000;stroke-width:1;"/><text fill="#000000" font-family="sans-serif" font-size="13" lengthAdjust="spacing" textLength="48.3184" x="742.5" y="533.0669">celebra</text><text fill="#000000" font-family="sans-serif" font-size="13" lengthAdjust="spacing" textLength="8.271" x="662.4056" y="481.7523">1</text><text fill="#000000" font-family="sans-serif" font-size="13" lengthAdjust="spacing" textLength="23.0356" x="754.5461" y="564.7334">0..*</text></g><!--reverse link Evento to Material--><g class="link" data-entity-1="ent0007" data-entity-2="ent0009" data-link-type="aggregation" data-source-line="94" id="lnk15"><path codeLine="94" d="M1031.9829,838.0639 C1037.1329,848.0439 1036.69,847.33 1041.5,857 C1049.01,872.08 1056.77,888.38 1064.01,903.94" fill="none" id="Evento-backto-Material" style="stroke:#181818;stroke-width:1;"/><polygon fill="none" points="1026.48,827.4,1025.6768,834.5662,1031.9829,838.0639,1032.7861,830.8976,1026.48,827.4" style="stroke:#181818;stroke-width:1;"/><polygon fill="#000000" points="1055.6862,870.0631,1054.3745,860.6435,1049.0882,863.2135,1055.6862,870.0631" style="stroke:#000000;stroke-width:1;"/><text fill="#000000" font-family="sans-serif" font-size="13" lengthAdjust="spacing" textLength="54.7866" x="1062.5" y="870.0669">requiere</text><text fill="#000000" font-family="sans-serif" font-size="13" lengthAdjust="spacing" textLength="23.0356" x="1006.6722" y="847.0158">0..*</text><text fill="#000000" font-family="sans-serif" font-size="13" lengthAdjust="spacing" textLength="23.0356" x="1036.4994" y="892.7173">0..*</text></g><!--link Evento to Comisario--><g class="link" data-entity-1="ent0007" data-entity-2="ent0008" data-link-type="dependency" data-source-line="95" id="lnk16"><path codeLine="95" d="M826.7617,832.4571 C821.2117,842.0771 819.36,846.82 815.5,857 C809.97,871.58 807.8709,881.9124 807.4209,897.7024" fill="none" id="Evento-Comisario" style="stroke:#181818;stroke-width:1;"/><polygon fill="#181818" points="829.76,827.26,821.7978,833.0568,827.2614,831.5909,828.7272,837.0546,829.76,827.26" style="stroke:#181818;stroke-width:1;"/><polygon fill="#181818" points="807.25,903.7,811.5048,894.8176,807.3924,898.702,803.508,894.5897,807.25,903.7" style="stroke:#181818;stroke-width:1;"/><polygon fill="#000000" points="819.079,870.3602,824.4674,862.5234,818.8319,860.8529,819.079,870.3602" style="stroke:#000000;stroke-width:1;"/><text fill="#000000" font-family="sans-serif" font-size="13" lengthAdjust="spacing" textLength="203.0044" x="829.5" y="870.0669">fiscalizado por / involucrado en</text><text fill="#000000" font-family="sans-serif" font-size="13" lengthAdjust="spacing" textLength="23.0356" x="799.1941" y="846.8681">0..*</text><text fill="#000000" font-family="sans-serif" font-size="13" lengthAdjust="spacing" textLength="23.0356" x="782.2839" y="892.8304">1..*</text></g><?plantuml-src ZLNRRjim37ttLmXvMNP9r-xHA084JOTrQDPWmJv0aHYNdIrvafrjtVPL-uJzs6XRliXMBtcAJ8haEOUax5TKEJSyOoBbrgwAmk2-BE1AQBN3Us2daUrSCgsqk3Kw0tRWgOM1oUXIIQ6D0iFEXdViBPVwEwh4NOdgF6m74cvIp78KdFsA6FqMJEbiRo1cEof29UvZRi2MUGcsqAlSw1-OKS2OILtkKt0-GcTv2dVQnkmQRN5-uSvhoBKfyAYNjUDhba3ngKuoV-cbgItRKARASP2h2L5cO7IRn5Okg0fdvuc1X9lMEczhYzcaAhftr2YZFr74zxOmN1ID35FNnpbAjU0ftdE1MerCTt206vDm5JPp0_n6b3cNVFDkn6fbQnbTqVyrM4mKUIwT0nn15Htfb_NfMKnV3-eDsJ-EYWxvh8QLJrHoAbHEymf7p3m4BVEDCucTKAzoqq2ODxXYrXm7AldYV54ed4BGwIERyvQA5PZpT5huUkGn0DUbsEeKvKHxmLM1aiiBhiHj9KtVTHJtmhUsNTd5z0Xul9ySY5NZh4TML9AcLcgpmwASDjKJsg_zs26Ngqc244UDEey3EG1HGVrPzTkQ5srdozBKOJUeohg1Mo8fJ9bjET5UIQCA6Dj8UxJSeBQVuLi91gL_FQCa1daAxLHit8TblwfSW7vNDH-UDJdlAq2LmOVKCEkZyjTIixOyQC6zrTOxRv74hFta3msl1JHT-VCEMRtfch-XsMai_S0e78aMLDBjcYjrr6afJDsLuRMpLXXYxc5EBoUXQuA7mRlwMoxwcTGI4psP7oiCve5zsuxmU7RhAE5nwKA5pEtG3wRz1Vi01cYtSAgZMrOschufvxyNY-0sUyZNMqjLfifFM-geVtyL-ydwdLsTANlrp4VUMpyxcx5N56fsTdBoQXPuw6AYb3210hOCr36wxo-rc54ryCJ5q_gYsnwK3LBO6qvt28zhXJTzdrg2jUc6EdBNN13Tn-iQ8sQ6DWEI11JITpzVB9O3u6uGOdP0sxo7KXC0mzwIb5qlCb1i-Hy0?></g></svg>